<?xml version="1.0" encoding="utf-8"?>
<!-- Generator: Adobe Illustrator 23.1.1, SVG Export Plug-In . SVG Version: 6.00 Build 0)  -->
<svg version="1.1" id="图层_1" xmlns="http://www.w3.org/2000/svg" xmlns:xlink="http://www.w3.org/1999/xlink" x="0px" y="0px"
	 viewBox="0 0 4500 4500" style="enable-background:new 0 0 4500 4500;" xml:space="preserve">
<style type="text/css">
	.st0{fill-rule:evenodd;clip-rule:evenodd;fill:#797979;}
	.st1{fill-rule:evenodd;clip-rule:evenodd;fill:#4B4B4B;}
	.st2{fill-rule:evenodd;clip-rule:evenodd;fill:#383838;}
	.st3{fill-rule:evenodd;clip-rule:evenodd;fill:#A7A5A5;}
	.st4{fill-rule:evenodd;clip-rule:evenodd;fill:#C6CACD;}
	.st5{fill-rule:evenodd;clip-rule:evenodd;fill:#A1A5A8;}
	.st6{fill-rule:evenodd;clip-rule:evenodd;fill:#F6FBFD;}
	.st7{fill-rule:evenodd;clip-rule:evenodd;fill:#DF6064;}
	.st8{fill-rule:evenodd;clip-rule:evenodd;fill:#AA282A;}
	.st9{fill-rule:evenodd;clip-rule:evenodd;fill:#771C1C;}
	.st10{fill-rule:evenodd;clip-rule:evenodd;fill:#D63D3D;}
	.st11{fill-rule:evenodd;clip-rule:evenodd;}
	.st12{fill-rule:evenodd;clip-rule:evenodd;fill:#040002;}
</style>
<g>
	<title>Layer 1</title>
	<g>
		<title>Group</title>
		<g>
			<title>Group</title>
			<defs>
				
				<title>Shape 272</title>
			</defs>
			<g>
				<g>
					<g>
						<path class="st0" d="M1015.1,1339.4c23.9-19.8,45.3-26.7,45.3-26.7c-2.5,45.8,3.3,84.7,13.7,117.4
							c7.3,23.6,17.7,46.1,31.1,66.8c39.6,60.9,90.6,84.8,90.6,84.8c6.1-117.2,66.2-156.8,66.2-156.8c-10,68.4-9.3,243.8,50.6,382.9
							c69.8,162-2.3,154.8,94.9,358c122.3,255.5,469,252.4,469,252.4c-198.8,57.2-418.4-12.1-526-190
							c-42.4-70.4-59.5-128.2-67.2-178.5c-49-16.5-129.2-85.9-134-90.2c3.9,0.9,67.6,15.4,127.4,15.6c-2.1-43.7-3.1-82.5-18.9-121.6
							c-57.9-7-120.6-45.7-120.6-45.7c-6.4,112.4-64,168.3-129.3,187.8l-16.5,85.1c63,84.5,221.9,208.9,221.9,208.9
							s-133.5-41.6-235.3-140.3c-12.4,63.5-24.8,127.1-37.2,190.6c65,52.5,132.7,97.8,197.5,137.7
							c190.7,117.4,451,170.9,518.4,167.6c64.8-11.5,131.8-25.7,198.2-41.5c-68.2-15.7-230.4-56.4-320.9-106.2
							c66.8,3.4,325.9,37.6,574.1,39.1c232.1-67,413.4-133.4,413.4-133.4s-95.5-133.5-27.8-289.4c67.8-155.9,212.9-193,282.6-203
							c59.1-44.6,138.1-212.6,147.6-365.9c9.9-160-102.2-215.2-166.4-298.2c-64.2-83.1-105.8-191.6-189.2-298.8
							c78.1,38.5,129.6,108,129.6,108c11.1-29.2,69-193.4,18.1-292.8C2660,654,2533.4,604.7,2533.4,604.7c14.2-16.3,50.7-33,50.7-33
							c-183.4-92.2-351.3,28-351.3,28c-4.8-27.1-1.4-56.3-1.4-56.3c-93.5,78.6-119.9,225-119.9,225c197.9-1.3,268.4,75.3,268.4,75.3
							c-212.9-36.7-451.9-17.1-637.1,76.8c-185.2,93.9-351.2,289.2-351.2,289.2c22.5-112.5,81.3-163.1,81.3-163.1
							c-98-76.8-202.1-64.2-202.1-64.2c19.6,14.2,41.8,51.1,41.8,51.1c-42.4,2.5-84,12.7-122.8,30.2c-17.2,7.7-33.7,16.8-49.5,27.1
							c-42.7,27.9-77.4,63.4-101.1,101.1c-32.9,51.8-44.9,107.4-29.2,152.1C1011.8,1342.4,1013.5,1340.9,1015.1,1339.4z
							 M2013.3,1281.7c0,0,28.6-97.2,130.8-141c102.2-43.8,306.4-8.9,422.3,116.5c115.9,125.4,82,258.8-12.9,309.8
							c-144.4,77.7-197.1-7.5-316.3-48.2C2117.8,1478.2,1971.9,1445.6,2013.3,1281.7z M2097.3,1612.8c70.2-9.9,93.8,34.8,67.5,95.9
							c-26.4,61.1-64.5,90.1-97.1,97.8c-64.8,15.2-142.2-40.9-144.1-84.3C1921.6,1678.8,2027.2,1622.5,2097.3,1612.8z
							 M2135.6,1866.8c49.4,29.8,159.4,6.3,166.6-129.3c0,0,63.3,82.9-6.6,154.8c19.4,27.2,50.5,174.9-60,232.4
							c-121.4,63.2-205.4-63.9-223.5-99.3c-82.1-8.4-97.1-82.2-97.1-82.2C2068.1,2017,2135.6,1866.8,2135.6,1866.8L2135.6,1866.8z
							 M1425.6,1673.4c16.3-188.9,156.8-367.4,323.3-327.4c161.3,38.8,132.8,187.1,98.2,282.7c-34.6,95.7-23,147.7-49.7,220
							c-26.7,72.3-95.8,128.8-187.2,123.2C1492.8,1964.7,1411.2,1855.9,1425.6,1673.4L1425.6,1673.4z"/>
					</g>
				</g>
			</g>
			<defs>
				
				<title>Shape 273</title>
			</defs>
			<g>
				<g>
					<g>
						<path class="st0" d="M2997.2,1863.2c0,0-37.1,86.5-190.8,116.6c-171.7,33.6-289.1,157.6-210.1,264.8
							c80.9,109.8,283.1,80.8,283.1,80.8c-181.6,99.7-319.2-15.5-319.2-15.5c64.3,155.2,299.6,205.3,489.3,48
							c189.8-157.2,206.5-356.5,206.5-356.5c-22.7,50.8-69.9,105.5-72.9,108.9c2.6-6.3,59.5-145.8,51.6-251.7
							c-8.1-108.4-92.5-191.5-241.4-258.4c-6.6,152-117.1,299.3-117.1,299.3C2925.3,1892.1,2997.2,1863.2,2997.2,1863.2z"/>
					</g>
				</g>
			</g>
			<defs>
				
				<title>Shape 274</title>
			</defs>
			<g>
				<g>
					<g>
						<path class="st0" d="M1977.6,1743.4c52.3,41.4,91.8,24.2,126.5-14.5c34.6-38.7,23.7-71.1-27.3-56
							c-51.1,15.2-76.9,30.4-100.3,44.7C1970.9,1721,1958.7,1728.5,1977.6,1743.4z"/>
					</g>
				</g>
			</g>
			<defs>
				
				<title>Shape 275</title>
			</defs>
			<g>
				<g>
					<g>
						<path class="st0" d="M2736.3,2783.2c109.4,58.7,284.9,202.8,340.3,487.7c-5.7-12.1-187.8-394.6-590.4-409.3
							c-445.8,129.6-911.8,217.3-994.1,215.4c-1.4,69.5,132.3,885.6,188.4,1161.3c307.7,161.4,761.9,94.2,959.8,45.4
							c343-97,573.9-496.4,573.9-496.4c-17,200.2-157.4,359.9-161.7,364.9c202.5-94.9,477.1-335.7,517.3-425
							c-119.1-384.6-238.3-769.1-357.4-1153.7C3097.8,2647.1,2926.9,2718.5,2736.3,2783.2z"/>
					</g>
				</g>
			</g>
			<defs>
				
				<title>Shape 276</title>
			</defs>
			<g>
				<g>
					<g>
						<path class="st0" d="M860.8,1983.5c-19.5-10-34.9-23.1-43.9-38.2c0,0,19.9,6.7,48.5,10c16.3,1.9,32.7,2.2,49,1
							c19.6-1.6,40.2-6,60-15c20-8.9,37.7-22.2,51.8-38.9c40.7-48.1,48.4-110.2,33.1-169.8c-6.6-25.3-16.7-49.6-30.1-72
							c-14.9-25.3-33.6-48.2-55.4-67.9c-13.5-12.3-28.2-23.1-43.9-32.3c-17.4-10.2-36.1-18.1-55.5-23.4
							c-151-40.7-331.2,146-237.7,402.1c41.3,113.3,107,208.9,183.9,290.3L860.8,1983.5z"/>
					</g>
				</g>
			</g>
			<defs>
				
				<title>Shape 277</title>
			</defs>
			<g>
				<g>
					<g>
						<path class="st0" d="M3308,1821.6c0,0,99.4,255.7-159.5,539.1c-168.1,178.9-436.4,222.3-577.4,100.2
							c0,0-428.4,160.1-783.6,229.2c-355.1,69.1-613.8,84.6-553.6-81.8c-26.8-11.4-59-28.4-90.7-46.4
							c-178.1,62.2-222.1,203.3-175.8,305.1c-92.8-50.6-138.6-221.3,83.7-360c-24.6-15.4-40.8-26-40.8-26s-195.6,80.9-281.5,222.8
							c-85.9,141.8-18.1,282.8,164.5,306.4s695,10.9,1429.7-184.3c734.8-195.2,1295.9-539.5,1371.8-756.4
							C3770.9,1852.3,3459.9,1802.6,3308,1821.6z"/>
					</g>
				</g>
			</g>
			<defs>
				
				<title>Shape 278</title>
			</defs>
			<g>
				<g>
					<g>
						<path class="st0" d="M2100.2,1418.5c2.9,6.7,31.6,31.2,37.2,37.5c5.6,6.4,17.9,10.3,17.9,10.3c20.9,6.5,41.9,13,62.8,19.4
							c20.9,6.5,67.8,14.5,70.1,15.8c2.3,1.3,56.6,14.7,56.6,14.7s105.2-3,107-3s35.7-10.4,37.1-11.3c1.3-0.9,35.7-32.6,35.7-32.6
							c4.7-25,9.3-50,14-75c0-23,0-46.1,0-69.1c0-23.1-38.4-80.9-38.9-82.7c-0.5-1.8-17-25-17-25c-10-7.9-20-15.9-30-23.8l-75-25.7
							c0,0-35.6-10-36.9-10.3c-1.3-0.3-47.2-3.7-48.5-2.5c-1.4,1.2-48.8,0-48.8,0c-15.3-0.7-30.7-1.3-46.1-2
							c-15.4-0.7-53.6,13.9-55.4,14.7c-1.8,0.8-44.9,34.4-45.9,35.7c-0.9,1.3-18.1,47.2-18.1,47.2s-7.2,37.2-7.7,38.6
							c-0.5,1.4,9.5,79.5,9.5,79.5S2097.3,1411.9,2100.2,1418.5z"/>
					</g>
				</g>
			</g>
			<defs>
				
				<title>Shape 279</title>
			</defs>
			<g>
				<g>
					<g>
						<path class="st0" d="M1536.8,1845.5c19.4,7.2,38.9,14.5,58.3,21.7c29.1,0,58.3,0,87.4,0c2,0,49.5-29.1,49.5-29.1
							c14.2-9.7,28.5-19.4,42.7-29.1c14.2-9.7,23-48.8,23.7-54.3c0.7-5.4,6.1-67.4,6.1-67.4s15-48,16.3-51.9
							c1.4-3.9,6-29.1,9.2-32.6c3.2-3.4,10.4-32.6,10.4-32.6l9.4-35.3c-0.4-12.8-0.9-25.5-1.3-38.3c0.4-13.2,0.9-26.4,1.3-39.7
							c-8.1-12.4-16.3-24.8-24.4-37.3c-9-10.4-18.1-20.7-27.1-31.1c-17.4-2.5-34.8-5.1-52.2-7.6c-2.3,28.9-4.5,57.8-6.8,86.8
							c-34.8-6.1-69.6-12.2-104.4-18.3c-49.8,24.2-99.6,48.5-149.4,72.7l-11.5,23.6c-9.8,34.1-19.7,68.2-29.5,102.3
							c5.2,35.5,10.4,70.9,15.6,106.4c5.2,35.5,42.7,66.4,44.7,67.8C1506.9,1823.8,1536.8,1845.5,1536.8,1845.5z"/>
					</g>
				</g>
			</g>
			<defs>
				
				<title>Shape 280</title>
			</defs>
			<g>
				<g>
					<g>
						<path class="st1" d="M3580.3,3608.5c-19.2-53.5-38.4-107.1-57.6-160.6c-21.9-71.4-43.8-142.8-65.8-214.2l-82-245.4
							c-18.8-67.6-37.5-135.1-56.2-202.7c-29.1-86.5-58.3-173.1-87.4-259.6l-530.5,230.9c-99.1,27.7-198.2,55.4-297.4,83.2
							c-86.8,25.6-173.5,51.2-260.3,76.8l-267.5,55.1c-96.4,20.5-192.8,41-289.2,61.4c-30.4,8.7-60.8,17.5-91.3,26.2
							c249.4,113,518.8-88.6,858.5,27.1c339.8,115.7,562.1,368.7,569.4,549.5c0,0,89.5-101.2,94.9-210.6
							c98.5,422-132.9,792.6-901,933.6c0,0,310,22.6,474.5-15.4c164.5-38,307.3-87.7,307.3-87.7c62.5-26.1,125-52.3,187.5-78.4
							c45.6-22.6,91.3-45.2,136.9-67.8c49-38.4,98.1-76.8,147.1-115.2c53.8-50.8,107.6-101.7,161.3-152.5
							c26-36.6,52-73.2,77.9-109.8L3580.3,3608.5z"/>
					</g>
				</g>
			</g>
			<defs>
				
				<title>Shape 281</title>
			</defs>
			<g>
				<g>
					<g>
						<path class="st1" d="M1954.3,2610.8c23-11.3,46.1-22.6,69.1-33.9c-69.1-181-138.3-361.9-207.4-542.9l-523.7-118.8
							c0,0-90.4-18.5-175.8-69.6l-31.1-73.9c-85.9-152.7-245.4-171.5-343-58.5c-97.6,113-54.3,304.5,111.2,461.8
							c165.4,157.2,540.4,416.6,981.5,456.4L1954.3,2610.8z"/>
					</g>
				</g>
			</g>
			<defs>
				
				<title>Shape 282</title>
			</defs>
			<g>
				<g>
					<g>
						<path class="st1" d="M2219.6,1462.3c89,35.2,220.7,115.5,307.4,65.3c86.8-50.2,87.9-163.8-28.6-262.8
							c-21.3-18-136.8-106.6-260.8-95.8c-124.1,10.8-197.4,108.5-178,183.5C2078.9,1427.6,2136.9,1429.6,2219.6,1462.3z
							 M2191,1342.7c4.6-55.1,55.9-96,114.7-91.2c58.9,4.8,102.9,53.2,98.5,108.2c-0.3,4.8-1.1,9.5-2.2,14.2
							c-15.3-33-49.1-57.5-90.1-60.8c-53.7-4.3-101.2,29.2-112.4,76.9C2192.7,1375.3,2189.8,1359,2191,1342.7z"/>
					</g>
				</g>
			</g>
			<defs>
				
				<title>Shape 283</title>
			</defs>
			<g>
				<g>
					<g>
						<path class="st1" d="M1614,1926.2c130.9-4,147.8-130.8,168.1-231.1c20.3-100.3,97-205.8,0-281.3
							c-103.6-80.7-287.2,45-305.6,225C1466.5,1735.9,1483.2,1930.3,1614,1926.2z M1582.6,1608.9c26.3-52.8,87.8-75.6,137.3-51
							c14.6,7.3,27,18.3,36.1,31.8c-46.7-15.1-99.9,8.2-124,56.4c-18.3,36.8-14.9,78.4,5.5,108.5c-4.6-1.4-9-3.2-13.3-5.4
							C1574.8,1724.6,1556.2,1661.8,1582.6,1608.9z"/>
					</g>
				</g>
			</g>
			<defs>
				
				<title>Shape 284</title>
			</defs>
			<g>
				<g>
					<g>
						<path class="st1" d="M2020.2,1772.7c32.6,12.2,35.5,17.6,57.6,0c22.1-17.6,53.3-48.1,53.3-48.1c4.1-8.7,8.1-17.3,12.2-26
							c0-6,0-12.1,0-18.1c0-0.9-9.9-25.5-9.9-25.5s-11.9-8.1-12.7-8.1c-0.7,0-17.2-0.4-21.9,0.9c-4.7,1.4-15.6,2-22.6,5.4
							s-58.7,30-58.7,30S1987.7,1760.6,2020.2,1772.7z"/>
					</g>
				</g>
			</g>
			<defs>
				
				<title>Shape 285</title>
			</defs>
			<g>
				<g>
					<g>
						<path class="st1" d="M1126,1415.1c6.4-23,44.7-57.2,44.7-57.2c-19,113,44.7,179.8,44.7,179.8
							c139.6,19.9,198.4-23.5,198.4-23.5s270.2-371.4,46.1-431.1c-224.1-59.6-330.5,109.6-330.5,109.6
							c30.2-11.9,86.1-10.2,86.1-10.2C1101.6,1264.7,1126,1415.1,1126,1415.1z"/>
					</g>
				</g>
			</g>
			<defs>
				
				<title>Shape 286</title>
			</defs>
			<g>
				<g>
					<g>
						<path class="st1" d="M2570.6,1062.4c27.4-9.6,54.8-19.3,82.2-28.9c80.4-188-49.9-271.1-49.9-271.1c27.2-0.9,54.5,0.1,81.6,2.7
							c-123.1-150-306.4-93.5-306.4-93.5c15.4-33.9,53.3-68.2,53.3-68.2c-146.4,3.6-256.2,106.2-270.6,185.3l61,120.2L2570.6,1062.4
							z"/>
					</g>
				</g>
			</g>
			<defs>
				
				<title>Shape 287</title>
			</defs>
			<g>
				<g>
					<g>
						<path class="st1" d="M2962.5,1894c76.6-41.7,51.4-138.4-3.7-184.5c0,0-86.8,144.1-101.7,189.9
							C2842.2,1945.2,2885.9,1935.7,2962.5,1894z"/>
					</g>
				</g>
			</g>
			<defs>
				
				<title>Shape 288</title>
			</defs>
			<g>
				<g>
					<g>
						<path class="st1" d="M2552.3,2649.4c549.2-130.1,994.3-451.9,1028.7-595.6c34.3-143.7-197-142.8-197-142.8
							c-19,80.4-83.6,150.7-83.6,150.7s-60.9,94.1-75,124.4c12.5-26.8,25-53.5,37.5-80.3c5.3-18.5,10.6-37.1,15.8-55.6
							c4.1-31.9,8.1-63.9,12.2-95.8c-3.2-30.6-6.3-61.2-9.5-91.7c-10.2-30.4-20.5-60.8-30.7-91.3c-21.6-32.7-43.1-65.4-64.6-98
							c-18.4-12.2-36.8-24.4-55.1-36.6c-8.3,2.9-16.6,5.7-24.8,8.6c-8.3,2.9,131.9,175.8,35.7,398.1c0,0,13.1-90.8-6.8-144.6
							c0,0-54.7,224.6-250.8,327.6c-196.1,103-339.4-82.4-206.1-217.8c0,0-75.9,10.4-88.5,39.2c-12.6,28.8-48,40.3-58.9,91
							c-6.6,31.2-9.3,63-8.1,94.9c-3.1,25.2-3.2,50.7-0.3,76c4.8,41.6,44.6,88.6,44.6,88.6c5.3,4.3,10.5,8.6,15.8,12.9
							c-31.5,12.6-63,25.1-94.4,37.7c-100.3,35.5-200.6,70.9-300.9,106.4c-96.2,23-192.5,46.1-288.7,69.1
							c-93.8,21.2-187.5,42.5-281.3,63.7c-57.4,0.9-114.8,1.8-172.2,2.7c-35.2-6.6-70.5-13.1-105.7-19.7
							c-13.5-23.7-27.1-47.4-40.7-71.2c-53-26.8-106-53.5-159-80.3c-20.4,5.3-40.9,10.6-61.3,15.9c-29.2,18.1-58.4,36.2-87.7,54.3
							c-29.2,18.1-85.9,117.5-70.5,183.4c15.8,68.7,36.1,228.6,659.7,127.4C2203.8,2799.5,2552.3,2649.4,2552.3,2649.4z
							 M3152.2,2296c9.7-12.8,19.5-25.5,29.2-38.3c-12.9,19.1-27,39.7-40.9,60.9c-34.5,52.5-84.9,70.1-122.2,98.6
							c22-16.9,44.1-33.8,66.1-50.7L3152.2,2296z M2923.1,2454.6c29.6-10.9,59.2-21.9,88.8-32.8c-31.5,22-73.4,36-132,48.4
							L2923.1,2454.6z M2629,2448.8l123.8,37.4c-32.5,0-59.1-4.1-80.8-11c-39.9-12.8-88.9-63.7-89.2-64.1L2629,2448.8z"/>
					</g>
				</g>
			</g>
			<defs>
				
				<title>Shape 289</title>
			</defs>
			<g>
				<g>
					<g>
						<path class="st2" d="M2116.9,1747.5c23.9-11.3,20.6-35.2,20.8-36.4s5.9-15.4,8.4-29.4c2.5-14-11.1-17.6-28.2-26.9
							c-17.1-9.3-50.6-3.2-50.6-3.2c-5.3,5.4-10.6,10.8-15.8,16.3c51.1,28.5-12.2,60.6-16.7,112.1
							C2060.5,1789.7,2093,1758.8,2116.9,1747.5z"/>
					</g>
				</g>
			</g>
			<defs>
				
				<title>Shape 290</title>
			</defs>
			<g>
				<g>
					<g>
						<path class="st2" d="M1397.8,1704.6c0,2.7,17.6,123.4,19.7,146.1c2,22.7,35.9,87.8,38,93.2c2.1,5.4,126.7,86.8,137.6,91.5
							c10.8,4.7,86.8,6.1,88.8,4.7c2-1.4,100.3-59.7,102.3-61.7c2-2,54.9-151.2,54.9-151.2c-9.7-50.6-19.4-101.2-29.2-151.8
							c-33.2,0.7-116.3,153.9-196.3,160.6c-80,6.8-122.4-70.5-145.5-175.3C1468.1,1660.7,1397.8,1701.8,1397.8,1704.6z"/>
					</g>
				</g>
			</g>
			<defs>
				
				<title>Shape 291</title>
			</defs>
			<g>
				<g>
					<g>
						<path class="st2" d="M2470.3,1660.7c2.7,0,127.4-20.8,155.4-29.8s71.4-73.2,71.4-73.2c14.5-42.8,28.9-85.5,43.4-128.3
							c14.5-42.8-34.3-89.5-35.2-92.2c-0.9-2.7-130.2-180.7-206.1-214.5c-75.9-33.8-53.3-18.6-62.4-21.3c-9-2.7-50.6,19-52.4,21.3
							s-4.5,62.8-4.5,62.8c129.2,67.8,156.6,214.2,85.4,262.3c-71.2,48.1-142.4,6.8-235.4,34.6c0,0,14.5,67.3,16.3,70
							C2248,1555.1,2467.6,1660.7,2470.3,1660.7z"/>
					</g>
				</g>
			</g>
			<defs>
				
				<title>Shape 292</title>
			</defs>
			<g>
				<g>
					<g>
						<path class="st2" d="M1243,1293.8c-14.5,45.6-12.7,115.9,0.2,165.7c0,0,0.7,23.4,0.7,25.4c0,2,176.9-77.3,176.9-77.3
							c34.6-46.1,69.1-92.2,103.7-138.3c34.6-46.1,14.2-93.5-93.5-126.8c-107.8-33.2-167.2,33.4-167.2,33.4
							c15.4-0.9,37.1,4.5,37.1,4.5c-84,56.3-95.8,141.2-95.8,141.2C1212.8,1310.1,1243,1293.8,1243,1293.8z"/>
					</g>
				</g>
			</g>
			<defs>
				
				<title>Shape 293</title>
			</defs>
			<g>
				<g>
					<g>
						<path class="st2" d="M2527.7,1036.9c0,0,40,16.9,73.2-59c33.2-75.9-46.3-151-46.3-151c12.3,3.8,24.3,8.3,36.1,13.4
							c-57.6-116.6-177.6-98.9-177.6-98.9c9-12,33.2-25.1,33.2-25.1c-124.7-29.1-201.1,80.9-201.1,80.9c-1.9,16.6-3.8,33.3-5.7,49.9
							c22.6,32.1,45.2,64.2,67.8,96.2L2527.7,1036.9z"/>
					</g>
				</g>
			</g>
			<defs>
				
				<title>Shape 294</title>
			</defs>
			<g>
				<g>
					<g>
						<path class="st2" d="M2931.2,1773.2c-28.3,38.9-56.6,77.7-85,116.6c-1.2,15.1-2.4,30.1-3.6,45.2c32.7-13,65.4-25.9,98.1-38.9
							C2981.8,1842.4,2959.2,1794.4,2931.2,1773.2z"/>
					</g>
				</g>
			</g>
			<defs>
				
				<title>Shape 295</title>
			</defs>
			<g>
				<g>
					<g>
						<path class="st2" d="M2600.6,2308.1c-14.5-7.9-28.9-15.8-43.4-23.7c-7.6,4-15.1,7.9-22.7,11.9c0,10.4,0,20.8,0,31.2
							c0,1,13.6,32.2,13.6,32.2c14.1,19.2,28.2,38.4,42.3,57.6c23.4,13.1,46.8,26.2,70.2,39.3c30.7,7,61.4,14,92.2,21
							c20.5,2,40.9,4.1,61.4,6.1c20.4,2,80.3-13.9,81.7-14.9c1.4-1,67.8-22,69.1-23.7c1.3-1.7,43.6-14.3,120.5-42.8
							c76.9-28.5,135.6-92.2,156.3-122.4c75.5-38.9,166.5-157,44.5-190.2c0,0-26.2-14.9-17.4-62.4c8.8-47.4-20.6-86.8-49,6.1
							c-28.5,92.9-130.4,193.6-130.4,193.6c12.7-26.2,17.8-115,17.8-115c-56.9,83.4-167,230.2-315.2,229.3
							c-46.5-4.7-93.1-9.4-139.6-14.1L2600.6,2308.1z"/>
					</g>
				</g>
			</g>
			<defs>
				
				<title>Shape 296</title>
			</defs>
			<g>
				<g>
					<g>
						<path class="st2" d="M2796.8,2509.1c-72.1-25.1-144.2-50.2-216.2-75.2c-10.4-2.9-20.8-5.7-31.2-8.6
							c-69.6,27.9-139.2,55.7-208.8,83.6c-64,19-128,38-192,56.9c-17.4,4.4-34.8,8.8-52.2,13.2c26.8-8.6,53.5-17.2,80.3-25.8
							c40.7-12.9,81.3-25.8,122-38.6l269.7-101c-13.1-23.7-26.2-47.4-39.3-71.2c-7.4-37.1-14.9-74.1-22.4-111.2
							c-5.6-6.8-11.3-13.6-16.9-20.3c7.1-17.7,14.2-35.4,21.2-53.1c-212.4,10.2-424.7,20.5-637.1,30.7
							c-212.4,10.2-550.4-131.9-639.9-201.5c0,0-75-20.3-101.2-34.3c0,0,27.8,58.3,64.7,86.1c0,0-97.3-42.7-152.2-88.4
							c9.6-22.4,19.2-44.7,28.8-67.1c-1.7-7.1-3.4-14.2-5.1-21.4c-1.7-7.1-32.6-153.2-188-120.6c-155.4,32.5-119.8,249.4-12.2,322.6
							c0,0,55.6-7.2,123.4,58.7c67.8,66,102.9,92.8,102.9,92.8c21.2,13.4,42.5,26.9,63.7,40.3c83.9,56.6,240.3,134.9,365,180.3
							c0,0-112.3,7.5-185.5-4.3c0,0,229.1,90.4,407.1,113.9c178,23.5,253.5,55.1,253.5,55.1c11.1-1.8,22.1-3.6,33.2-5.4l-61.2,15.5
							c-59.8,15.8-119.6,31.6-179.4,47.5c-55.3,9.5-110.6,19-165.8,28.5c-63.6,5.6-127.1,11.1-190.7,16.7
							c-50.3-38.3-100.6-76.5-150.9-114.8c-36.9-6.9-73.8-13.9-110.7-20.8c-85.4,55.2-134.6,198.4,44.3,257.1
							c178.9,58.7,839.6-23.5,1371-294.6C2588.7,2530.1,2750.7,2545,2796.8,2509.1z"/>
					</g>
				</g>
			</g>
			<defs>
				
				<title>Shape 297</title>
			</defs>
			<g>
				<g>
					<g>
						<path class="st2" d="M3562.5,3572.1c-12.1-43.1-24.1-86.1-36.2-129.2l-63.2-178.9c-19.1-62.4-38.3-124.7-57.4-187.1
							c-14.2-45.8-28.3-91.6-42.5-137.4l-43.8-153.2c-16.4-53.2-32.8-106.4-49.2-159.5c-16.6-32.4-33.1-64.8-49.7-97.2
							c-30.3,13.6-60.5,27.1-90.8,40.7c-44.9,22.4-89.8,44.9-134.7,67.3c-68.4,28.5-136.8,56.9-205.1,85.4
							c-62.1,17.6-124.1,35.2-186.2,52.9c-62,17.6,138.3,55.1,176.2,99.2c38,44.1,109.8,69.8,134.9,111.8c25.1,42,59,67.1,71.8,99.6
							c12.9,32.5,32.6,47.3,46.8,89.5c59,118.6,111.2,257.8,113.9,316.6c0,0,33.4-114.8,34.4-248.5c0,0,161.3,494.8-74.1,742
							c-228.7,241.3-114.8,233.6-42.9,200.2c71.8-33.4,202.9-115.7,202.9-115.7c44.6-35.1,89.2-70.2,133.7-105.3
							c38.6-35.8,77.1-71.7,115.7-107.5c30-37.2,59.9-74.4,89.9-111.6c1.1-6.8,2.1-13.6,3.1-20.3L3562.5,3572.1z"/>
					</g>
				</g>
			</g>
			<defs>
				
				<title>Shape 298</title>
			</defs>
			<g>
				<g>
					<g>
						<path class="st3" d="M2060,3780c-59.7-469-443.3-657.5-595.1-651.4c59.7,373.8,119.3,747.5,178.9,1121.3
							c3.5,4.2,6.9,8.4,10.4,12.6c75.3,26.2,150.6,52.4,225.9,78.6c484.4-132,280.2-714.9,225-784.5
							C2115.1,3690.5,2060,3780,2060,3780z"/>
					</g>
				</g>
			</g>
			<defs>
				
				<title>Shape 299</title>
			</defs>
			<g>
				<g>
					<g>
						<path class="st3" d="M3735.2,1943.5c-10.1-16.2-20.1-32.3-30.2-48.5c-16.5-15.7-33-31.4-49.5-47.1
							c-23.3-10.2-46.5-20.3-69.8-30.5c-39.9-7-79.8-14-119.6-21c-3.7,4.2-7.5,8.4-11.2,12.5c200.6,40.7,246.7,237.2,98.9,463.6
							c20.7-8.9,41.4-17.9,62-26.8c13.3-15.1,26.7-30.3,40-45.4c13.3-15.1,50.2-63,50.5-64c0.3-1,26.4-67.8,26.4-67.8
							c1.9-19.4,3.8-38.9,5.8-58.3L3735.2,1943.5z"/>
					</g>
				</g>
			</g>
			<defs>
				
				<title>Shape 300</title>
			</defs>
			<g>
				<g>
					<g>
						<path class="st3" d="M853.5,2928.7c-151.8-122.9-67.8-277.9,124.7-454.1c0,0-94.4,37.5-217.3,133.8
							c-122.9,96.2-113,178.9-113,178.9c3.2,35.1,6.3,70.2,9.5,105.3s43.8,77.7,51.1,85c7.2,7.2,99.8,47.8,99.8,47.8
							c34.8,5.6,69.6,11.2,104.4,16.8c34.8,5.6,150.5,24.9,152.3,24.9c33.1,0,66.3,0,99.4,0c73.5-14.9,147-29.8,220.5-44.8
							C1458.4,3007.2,1005.4,3051.6,853.5,2928.7z"/>
					</g>
				</g>
			</g>
			<defs>
				
				<title>Shape 301</title>
			</defs>
			<g>
				<g>
					<g>
						<path class="st3" d="M866.7,2248.1c-245-234.5-271.3-481.5-188.1-591.8s200.2-118.5,268.9-96.8c-10.3-13.6-20.6-27.1-31-40.7
							c-21.3-5.2-42.7-10.4-64-15.6c-21.8,0-43.6,0-65.4,0c-21.7,6.9-43.4,13.7-65.1,20.6c-25.1,21.1-50.2,42.2-75.2,63.4
							c-13.9,24.6-27.8,49.3-41.7,73.9c-9.6,26.5-19.2,53.1-28.8,79.6c0,20.9,0,41.8,0,62.7c3.7,33,7.5,66,11.2,98.9
							c10.2,28.2,20.3,56.5,30.5,84.7c17.5,35.7,35,71.4,52.5,107.1c25.3,40.3,50.6,80.7,75.9,121c21.1,23.2,42.2,46.3,63.4,69.5
							c38.1,32.1,76.1,64.2,114.2,96.3l122.7,81.4c35.2,20.2,70.5,40.4,105.7,60.7c39.4,19.8,78.9,39.5,118.3,59.3
							c55.8,19,111.6,38,167.4,56.9l188.1,23.7C1388.2,2589.9,1111.7,2482.7,866.7,2248.1z"/>
					</g>
				</g>
			</g>
			<defs>
				
				<title>Shape 302</title>
			</defs>
			<g>
				<g>
					<g>
						<path class="st3" d="M1019.4,1389.1c3.3-7.4,6.6-14.8,9.9-22.1c6.2,25.3,12.3,50.6,18.5,75.9c11.5,22.3,22.9,44.6,34.4,66.9
							c11.4,22.3,45.2,55.1,46.5,57.8c1.3,2.7,79.5,51.5,79.5,51.5c0.6-17.2,1.2-34.3,1.8-51.5c-34.6-18.3-135.6-126.1-119.3-279.2
							c0,0-29.8,0.4-54.3,15.8c0,0,14.3-207,265.2-274.3c-4-5.2-8-10.5-11.9-15.7c-4-5.2,105-16.8,194.9,43.3
							c5.3-3.5,10.5-6.9,15.8-10.4c-3-8.7-6-17.5-9-26.2c-18.4-11.9-36.8-23.8-55.1-35.7c-25.4-8-50.9-16-76.4-23.9
							c-20.5-2-41-3.9-61.5-5.9c-18.7,2.1-37.4,4.2-56,6.3c-4.8,4.2-9.6,8.4-14.5,12.7c1.8,6.6,3.6,13.3,5.4,19.9l-31.1,30.7
							c-21.7,6.3-43.4,12.7-65.1,19c-25.6,20.9-51.2,41.9-76.8,62.8c-12.8,20.3-25.6,40.7-38.4,61c-10.1,21.7-20.2,43.4-30.3,65.1
							c-4.7,26.7-9.3,53.3-14,80c3.8,20.6,7.5,41.2,11.3,61.9L1019.4,1389.1z"/>
					</g>
				</g>
			</g>
			<defs>
				
				<title>Shape 303</title>
			</defs>
			<g>
				<g>
					<g>
						<path class="st3" d="M1473,1552.9c-2,17.2-4.1,34.5-6.1,51.7c0,10.2,0,20.5,0,30.7c58.3-115.9,121.3-233.2,322-226.8
							c-7.8-11.2-15.7-22.4-23.5-33.6c-12.2-2.1-24.4-4.2-36.6-6.3c-10.5-1.7-20.9-3.3-31.4-5c-19.3,3.7-38.6,7.4-57.8,11.1
							c-11.9,6.4-23.8,12.8-35.7,19.2c-13,11.2-26,22.4-39.1,33.7c-13.1,13.7-26.2,27.4-39.3,41.1c-8.3,10.8-16.6,21.5-24.9,32.3
							L1473,1552.9z"/>
					</g>
				</g>
			</g>
			<defs>
				
				<title>Shape 304</title>
			</defs>
			<g>
				<g>
					<g>
						<path class="st3" d="M2221.8,1159.2c0,0-36.4-15.5-94.7,16.4c-58.3,31.9-83,93.9-83,93.9c-6.1,14.2-12.2,28.4-18.3,42.6
							c3.6,17.3,7.2,34.6,10.9,51.9c3.6,17.3,24.1,43.7,25.4,45.1c1.3,1.4,34.6,26,34.6,26c18.3,9.4,36.6,18.8,54.9,28.1
							c17.4,1.8,34.8,3.6,52.2,5.4C2059.1,1390,2060,1232.1,2221.8,1159.2z"/>
					</g>
				</g>
			</g>
			<defs>
				
				<title>Shape 305</title>
			</defs>
			<g>
				<g>
					<g>
						<path class="st3" d="M2689.4,670.9c0,0-28.1-32.2-29.2-33.2c-1-1-52.2-43.7-52.2-43.7c10.2-6.2,20.3-12.4,30.5-18.6
							c10.2-6.2-25.1-21.7-26.1-22.7c-1-1-43.7-25.1-43.7-25.1l-70.8-14.9h-106.4c-18.3,3.5-36.6,7-54.9,10.5
							c-18.2,3.6-36.4,7.2-54.6,10.9c-18.2,3.6-28.5-3.7-28.5-6.4c0-2.7-2.4-22.4-2.4-22.4l-23,6.4c0,0-38.6,19.7-61,58
							c-22.4,38.3-44.4,72.5-44.4,72.5c-9.7,21.6-19.4,43.2-29.1,64.7c-6.3,28.8-12.6,57.6-19,86.4c19.3-1.5,38.6-2.9,57.9-4.4
							c19.3-1.5,29.8-123.4,86.8-183c2.5,13.3,5,26.7,7.4,40c2.5,13.3,140.3-132.2,310.4-75.9c-11.5,13.9-23,27.8-34.6,41.7
							c-11.5,13.9,175.6,46.9,236.1,192.4c0.5-15.7,1-31.3,1.5-47c-8.7-17.3-17.4-34.6-26.1-51.9L2689.4,670.9z"/>
					</g>
				</g>
			</g>
			<defs>
				
				<title>Shape 306</title>
			</defs>
			<g>
				<g>
					<g>
						<path class="st3" d="M3079.4,1771.9c-23,5-18.6,113.4-91.7,181.7c-34,31.7-42.1,30-53.7,54.7c-19.2,41.3,23.4,91.5,102.7,0
							C3116,1916.7,3102.5,1766.9,3079.4,1771.9z"/>
					</g>
				</g>
			</g>
			<defs>
				
				<title>Shape 307</title>
			</defs>
			<g>
				<g>
					<g>
						<path class="st3" d="M2866.9,2048.5c-16.7,0-31.8,10.1-38.2,25.5c-6.4,15.5-2.9,33.2,9,45.1c11.8,11.8,29.6,15.4,45.1,9
							c15.4-6.4,25.5-21.5,25.5-38.2c0-11-4.4-21.5-12.1-29.2C2888.4,2052.9,2877.9,2048.5,2866.9,2048.5z"/>
					</g>
				</g>
			</g>
			<defs>
				
				<title>Shape 308</title>
			</defs>
			<g>
				<g>
					<g>
						<path class="st4" d="M2675.2,1070.7c-14.1-18.9-28.2-37.9-42.3-56.8c-5.4-7.4-10.5-14.2-15.1-20.4
							c-42.7-51.8-186-146.2-313.2-172.1c-35.7-6.8-71.4-13.6-107-20.4h-113.2c0,0-155.9,12.3-157.9,12.9s-157.2,50.2-159.3,51.5
							c-2.1,1.3-127.4,76.6-127.4,76.6c19.2,36.6,38.4,73.2,57.6,109.9l123.2,70.7c0,0,74.1,131.4,75.9,136.9
							c1.8,5.4,45.1,166.4,45.1,173.5c0,7.2-28.8,146.4-38,178.4c-9.1,32-47,308.8-80.8,379.2c-33.8,70.5-181.8,196.6-252.2,227.7
							c-70.5,31.1-55.5,124.3-54.7,125.6c0.9,1.3,71.5,38.5,71.5,38.5c25.7,9.2,51.5,18.4,77.2,27.6c21.1,0.3,42.2,0.6,63.2,0.9
							c120.9,16.9,328.3,7.2,504.7-33.7c40.9-25.5,81.7-51,122.5-76.6c18.7-46.8,37.3-93.6,56-140.4c10-53.4,20-106.7,29.9-160.1
							c21.2-56.5,42.4-112.9,63.7-169.4c21.2-56.5,78.6-119.3,82.8-130.1c4.1-10.8,69.1-176.2,69.1-176.2l25.8-288.8L2675.2,1070.7z
							 M2010.7,1782.5c-1.3-0.7-11.8-6.2-13.3-7s-15-7.4-18-12.5c-3-5.1-12.9-16.7-13.9-17.8c-1-1.1-17.7-15-17.7-15
							s2.4-17.6,2.8-18.5c0.4-1,14.8-16.6,14.8-16.6c0.8-3.2,1.6-6.4,2.4-9.5c1,0,28.6-6.7,29.5-7.4c0.9-0.7,52.1-26.4,52.1-26.4
							c12.4-1.8,24.7-3.7,37.1-5.5c8-0.8,16.1-1.6,24.1-2.4c3.7,1,7.4,2,11.2,3c1.7,1.6,3.4,3.2,5.1,4.9c4.2,3.6,8.3,7.2,12.5,10.7
							c-0.6,2.6-0.6,5.2,0,7.8c1.1,4.3,0,15.2,0,15.2c0.3,3.8,0.5,7.5,0.4,11.3c-0.1,3.7-7.8,21.7-8.6,23
							c-0.8,1.3-13.5,18.3-14.2,20.7c-0.7,2.4-13.2,14.9-15.9,17.6c-2.7,2.7-16.9,12.9-18.3,14.2c-1.4,1.3-23.3,9.2-23.3,9.2
							s-24.7,3-25.8,3S2011.9,1783,2010.7,1782.5z M2266.4,2048.9c-7.2,22.1-34.6,36.7-35.2,37.6c-0.6,1-43.7,19.4-44.7,19.7
							c-1,0.3-36.7,0-37.3,0c-0.7,0-54.5-20.4-54.5-20.4s-31.9-26.1-32.6-27.4c-0.7-1.3-25.8-58.7-25.8-58.7
							c4.4-6.8,8.8-13.5,13.2-20.3c23.6-14.3,47.2-28.7,70.8-43c6.1-5.5,12.2-11.1,18.3-16.6c40.6-2.5,81.1-5,121.7-7.5
							c40.6-2.5,13.6,33.9,17.2,57.3C2281.2,1992.9,2273.6,2026.8,2266.4,2048.9L2266.4,2048.9z M2612.2,1456.5
							c-3.2,24.4-16.3,43.8-37.1,61.5c-20.8,17.7-61.5,43.8-101.2,50.5s-98.6-7.7-151-37.4c-52.5-29.9-108.4-50.7-108.9-52.5
							c0,0-86.8-21.2-108.9-30.7c-22.1-9.4-47.9-45.7-65.1-71.9s-15.4-47.4-8.6-78.6c6.8-31.2,52.8-88.1,52.8-88.1
							c17.9-14.8,35.9-29.6,53.8-44.4c22.3-4.3,44.5-8.7,66.8-13c24.1-2,48.2-3.9,72.3-5.9c15.2,2.5,30.4,5.1,45.6,7.6
							c24.5,5.8,49.1,11.5,73.6,17.2c24.5,5.7,66.5,33.4,67.8,33.8c1.3,0.4,60.5,43.8,60.5,43.8s31.2,33.5,32.1,35.7
							c0.9,2.2,39.8,58.8,38.5,60.2c-1.3,1.4,18,57.8,18.4,60.1C2614.4,1406.8,2615.4,1432.1,2612.2,1456.5L2612.2,1456.5z"/>
					</g>
				</g>
			</g>
			<defs>
				
				<title>Shape 309</title>
			</defs>
			<g>
				<g>
					<g>
						<path class="st4" d="M1145.7,442.8c-3.1,4.6-6.1,9.3-9.2,13.9c-33.2,199.4-66.4,398.9-99.6,598.3c10.8,1.8,21.7,3.5,32.6,5.3
							c15,0.8,30,1.6,45.1,2.4c24.9-10.5,49.8-21,74.8-31.5c24.9-10.5,6.8-146.7,41.2-300.4c34.3-153.6,51.5-263,51.5-263
							S1213.4,426.6,1145.7,442.8z"/>
					</g>
				</g>
			</g>
			<defs>
				
				<title>Shape 310</title>
			</defs>
			<g>
				<g>
					<g>
						<path class="st4" d="M1009.7,1400.2l-23.8,25.5l-29.4,109.8l99.4,70.5l24.4-78.2l-52-130.6L1009.7,1400.2z"/>
					</g>
				</g>
			</g>
			<defs>
				
				<title>Shape 311</title>
			</defs>
			<g>
				<g>
					<g>
						<path class="st4" d="M854.9,2155.9l-30.2,230.5l22.4,23.1H901l86.3-420.7l-94.4-6.8L854.9,2155.9z"/>
					</g>
				</g>
			</g>
			<defs>
				
				<title>Shape 312</title>
			</defs>
			<g>
				<g>
					<g>
						<path class="st5" d="M2950.2,1456.5c-15.4-72.3-51.5-104.8-51.5-104.8s-48.8-53.3-86.8-95.8c-37.9-42.5-66.9-91.3-66.9-91.3
							s-43.9-58.9-83.8-112.6c-2.2,2.6-4.3,5.2-6.5,7.8c-190.7-168.1-395.8-163.6-395.8-163.6c125.6,82.2,111.2,190.7,111.2,190.7
							c207,101.2,230.4,233.7,230.4,233.7s-15.8,0.4-6.8,17.1s9,54.7,19,88.6c9.9,33.9-12.2,33.9-19.4,67.8
							c-7.2,33.9-22.6,20.8-42.9,42.9c-20.3,22.1-59.2,19.4-102.1,31.6c-42.9,12.2-137.8-35.2-137.8-35.2
							c45.2,45.2,54.3,174.4-5.3,212.6c0,0,1,11.2,3.7,27.4c2.7,16.3-14.6,54.6-26,87.8c-11.5,33.2-12.6,34.6-12.6,34.6
							s3.6,58.3,11.3,96.2c7.7,38-8.1,70-8.1,70c100.3,156.4-40.7,315.1-40.7,315.1c106.7-24.7,202.1-60.8,260.3-109.1
							c-0.9-5.4-1.8-10.9-2.7-16.3c25.6-70.5,51.2-141,76.8-211.5c19.9-12.1,39.8-24.1,59.7-36.2c16.6-6.6,33.1-13.2,49.7-19.9
							c25.3-8.7,50.6-17.5,75.9-26.2c20.7-8.3,40-19.9,56.9-34.3c27.1-23.5,35.2-38,57.8-82.2c22.6-44.3,46.1-74.1,61.4-125.6
							c15.4-51.5,16.3-71.4,21.7-121.1C2955.8,1545,2965.6,1528.8,2950.2,1456.5z"/>
					</g>
				</g>
			</g>
			<defs>
				
				<title>Shape 313</title>
			</defs>
			<g>
				<g>
					<g>
						<path class="st5" d="M1127.4,1046.2c20-8.8,40.1-17.6,60.1-26.4c1.7-22.7,3.5-45.3,5.2-68c0.8-8.7,1.5-17.3,2.3-26
							s13.1-64.4,13.3-65.3c0.2-0.9,22.6-98.8,22.6-98.8c2.6-22.8,5.1-45.6,7.7-68.5c7-25.2,14-50.3,21-75.5
							c3.4-26.4,6.8-52.7,10.2-79.1c2.8-19.4,5.6-38.7,8.4-58.1c1-9,2-17.9,2.9-26.9c-20.3-4.4-40.5-8.9-60.8-13.3
							C1246.7,511.6,1140.9,937.7,1127.4,1046.2z"/>
					</g>
				</g>
			</g>
			<defs>
				
				<title>Shape 314</title>
			</defs>
			<g>
				<g>
					<g>
						<path class="st5" d="M1023,1584.4l27.1,23.1l30.3-77.7l-33.4-35.7L1023,1584.4z"/>
					</g>
				</g>
			</g>
			<defs>
				
				<title>Shape 315</title>
			</defs>
			<g>
				<g>
					<g>
						<path class="st5" d="M945,2122.1l40.9-129.2c-25.8-1.4-51.7-2.9-77.5-4.3C930.8,2008.2,948.4,2047.5,945,2122.1z"/>
					</g>
				</g>
			</g>
			<defs>
				
				<title>Shape 316</title>
			</defs>
			<g>
				<g>
					<g>
						<path class="st6" d="M1984.8,1686.9c23.1-16.1,46.1-32.1,69.2-48.2c144.4-83.4,93.3-134.1,48.6-177.7
							c-116.6-180.8-49.3-186.2-76-311.8c-52.5-264-386.8-207.2-386.8-207.2c-44.9,44.8-89.8,89.7-134.7,134.5
							c-82.2,72.7-215.7,266.8-266.6,402.3c-2.7,23.1-5.4,46.2-8.1,69.3c2.7,37.4,5.4,74.9,8.1,112.3c4.3,22.2,8.6,44.3,12.9,66.5
							c4.3,22.2,31.8,99.6,32.6,104.3c0.8,4.8,20.9,53.6,20.9,53.6c4.8,29.2,9.5,58.3,14.3,87.5c5.9,40.4,11.7,80.8,17.6,121.2
							c5.9,40.4,19,40,65.1,131.5c46.1,91.5,133.6,108.4,133.6,108.4c268.3,94.8,586.3-22.2,540.8-251.5c0,0-6.8-15.6-23.8-55
							c-16.9-39.4-6.1-59.7-6.1-59.7c99.7-105-2.1-168.8-2.1-168.8s3.8-6.7-19.6-11.5c-23.4-4.8-57.6-31.2-74.2-51.8
							C1934,1714.7,1984.8,1686.9,1984.8,1686.9z M1846.8,1539.5c0,1.6-11.5,54.9-11.5,54.9c-5.7,16.3-11.5,32.6-17.2,48.8
							c-6.7,21.7-13.4,43.4-20.1,65.1c-2.9,17-5.9,33.9-8.8,50.9c-4.5,21-9,42-13.6,63c-12.3,23.8-24.7,47.6-37,71.5
							c-17.4,13.6-34.8,27.1-52.2,40.7c-12.6,3.8-25.1,7.7-37.6,11.5c-1,0.4-47.4,0-47.4,0s-34.9-9.1-36.7-10.1
							c-1.7-1-33.5-17.7-33.5-17.7c-12.8-13.3-25.5-26.6-38.3-39.9c-8.8-16.2-17.7-32.3-26.5-48.5c-4.8-12-9.7-24-14.5-36
							c-4.8-12,0.3-57.6,0-61.9c-0.3-4.3-4.5-74.5-4.5-75.4s16.3-62.6,16.9-64.3c0.6-1.7,14.3-55.5,14.3-56.6
							c0-1.1,37.2-69.1,38.6-70.8c1.4-1.8,51.7-46.1,53.2-47.1c1.5-1,74.6-47.5,74.6-47.5s29.8-4.4,31.6-4.8s45.7,0,45.7,0
							c17,4.5,33.9,9,50.9,13.6c11.1,8.2,22.2,16.5,33.3,24.7c10.4,14.8,20.8,29.7,31.1,44.5c3.6,16.3,7.2,32.6,10.9,48.8
							C1852.2,1513.2,1846.8,1537.8,1846.8,1539.5z"/>
					</g>
				</g>
			</g>
			<defs>
				
				<title>Shape 317</title>
			</defs>
			<g>
				<g>
					<g>
						<path class="st6" d="M1131,451.5c-10.8,81.9-21.7,163.9-32.6,245.8c-22,127.8-44,255.5-66,383.3c-22,127.8,16.9,22.7,18,23.1
							c1,0.3,22.4,2,22.4,2c13.2-15.9,26.4-31.8,39.6-47.8c-26-34.2,14.9-154.5,32.6-263c17.7-108.4,65.1-305.7,33.9-355.2
							L1131,451.5z"/>
					</g>
				</g>
			</g>
			<defs>
				
				<title>Shape 318</title>
			</defs>
			<g>
				<g>
					<g>
						<path class="st6" d="M975.2,1422.9L963,1526.3l44.6,30l25.8-97.1l-13.8-65.4L975.2,1422.9z"/>
					</g>
				</g>
			</g>
			<defs>
				
				<title>Shape 319</title>
			</defs>
			<g>
				<g>
					<g>
						<path class="st6" d="M889.2,2005.1l-35.7,156.8c-4.8,39.5-9.6,78.9-14.5,118.4c-4.8,39.5-24.4,41.1-2.7,76.8
							c21.7,35.7,49.7-36.4,59.2-100.8c9.5-64.4,22.1-178,4.1-253.1L889.2,2005.1z"/>
					</g>
				</g>
			</g>
			<defs>
				
				<title>Shape 320</title>
			</defs>
			<g>
				<g>
					<g>
						<path class="st7" d="M1680.7,3194.6c-87.4,0.4-158.2-5.9-205.4-18.3c3.1,25,6.2,50,9.3,75.1c0.1,0.8,0.2,1.5,0.3,2.3
							c15.4,96.6,30.8,193.1,46.2,289.7c157.6,15.6,313.8,15.3,465.1,2.6C1920.4,3373.3,1796.1,3259.1,1680.7,3194.6z"/>
					</g>
				</g>
			</g>
			<defs>
				
				<title>Shape 321</title>
			</defs>
			<g>
				<g>
					<g>
						<path class="st8" d="M2147.8,1948.6c0,0-29.1,40.9-79.2,64.5c55.8,129,228.6,73.1,177.9-78.8
							C2202,1963.1,2147.8,1948.6,2147.8,1948.6z"/>
					</g>
				</g>
			</g>
			<defs>
				
				<title>Shape 322</title>
			</defs>
			<g>
				<g>
					<g>
						<path class="st8" d="M1142.8,794.6c-0.7,4.3-1.4,8.7-2.3,13c10.2,1.4,24,6.7,32.5,11.5c5.4-26.9,11-54.7,16.3-82.2
							c-9.3-3.7-23.2-7-33.8-8.7C1150.9,752.4,1145.9,775,1142.8,794.6z"/>
					</g>
				</g>
			</g>
			<defs>
				
				<title>Shape 323</title>
			</defs>
			<g>
				<g>
					<g>
						<path class="st8" d="M3033.3,3176.1c-14.2-42.1-33.8-56.9-46.7-89.5c-12.9-32.5-46.7-57.6-71.9-99.7
							c-10-16.7-27.2-30.8-46.8-44.5c-150,65.5-315.3,117.6-478.9,157.1c168,63.3,304.9,160,397.9,262.9
							c100.4-39.4,192.5-82.8,274.2-128C3052.1,3214.6,3042.8,3195.1,3033.3,3176.1z"/>
					</g>
				</g>
			</g>
			<defs>
				
				<title>Shape 324</title>
			</defs>
			<g>
				<g>
					<g>
						<path class="st9" d="M3277.4,2685.5c-105.4,101.5-248.8,187-409.5,256.9c19.6,13.7,36.9,27.8,46.8,44.5
							c25.2,42.1,59,67.1,71.9,99.7c12.9,32.5,32.6,47.4,46.7,89.5c9.4,19.1,18.8,38.6,27.6,58.4
							c131.7-72.9,236.1-150.6,304.4-224.4L3277.4,2685.5z"/>
					</g>
				</g>
			</g>
			<defs>
				
				<title>Shape 325</title>
			</defs>
			<g>
				<g>
					<g>
						<path class="st9" d="M1187.4,736.3c-5.3,27.4-10.8,55-16.3,81.9c11.9,6.7,22.7,15.1,32.1,25c5.6-25.8,11.3-51.5,16.9-77.3
							C1215.2,751.6,1202.8,742.3,1187.4,736.3z"/>
					</g>
				</g>
			</g>
			<defs>
				
				<title>Shape 326</title>
			</defs>
			<g>
				<g>
					<g>
						<path class="st9" d="M2208.4,2103.1c0,0,35.7-10.8,54.9-42.7c19.2-31.9,14.5-34.1,19.3-61.3c4.8-27.2-19.3-53.9-19.3-53.9
							C2203,1989.9,2172.5,2050.9,2208.4,2103.1z"/>
					</g>
				</g>
			</g>
			<defs>
				
				<title>Shape 327</title>
			</defs>
			<g>
				<g>
					<g>
						<path class="st10" d="M2388.9,3099.5c-263.5,63.4-522.9,94.2-708.3,95.1c115.4,64.5,239.8,178.7,315.6,351.3
							c290-24.2,561.9-93.6,790.6-183.5C2693.8,3259.4,2556.9,3162.8,2388.9,3099.5z"/>
					</g>
				</g>
			</g>
			<defs>
				
				<title>Shape 328</title>
			</defs>
			<g>
				<g>
					<g>
						<path class="st10" d="M1093.3,726.7l-5.3,31.1c0,24.6,0,49.2,0,73.7c17.4-21.5,36.9-26.4,54.8-23.6c0.9-4.3,1.6-8.7,2.3-13
							c3.1-19.6,7.4-42.3,11.9-66.4C1130.8,724.6,1104.2,725.9,1093.3,726.7z"/>
					</g>
				</g>
			</g>
			<defs>
				
				<title>Shape 329</title>
			</defs>
			<g>
				<g>
					<g>
						<path class="st10" d="M2123.7,2093.2c5.1,0,10.3,0,15.4,0c-8.6-47.9,39.5-136.5,91.7-160.9c-30.9-4.5-61.8-8.9-92.7-13.3
							c-33.8,28.5-67.6,56.9-101.3,85.4c14.4,20.6,28.8,41.1,43.1,61.7L2123.7,2093.2z"/>
					</g>
				</g>
			</g>
			<defs>
				
				<title>Shape 330</title>
			</defs>
			<g>
				<g>
					<g>
						<path class="st11" d="M3716.3,2181.8c139.7-184.4,69.2-474-437.8-442.8c0,0-86.8-168-277.2-220.2
							c-4.8-103.9-65.3-178.1-122.2-226.8c-56.9-48.8-91.6-123.2-122.5-153.3c0,0,58.3-114.1,48.4-253.3
							c-10-139.2-70.7-219.8-129.7-271.3c16.2-1.4,32.4-2.8,48.7-4.2c-71-86.5-183.5-163.9-424.8-116.4c7.7-19.8,15.3-39.6,23-59.4
							c-133.5,17.6-230.2,127-287.2,336.6c-122-5.9-386.3,89.9-513.3,219.6c-59.1-46.3-201.5-83.1-308-56.8
							c30.4-155.7,60.8-311.4,91.2-467.1c-30.6-57.6-140.1-94.8-194.9-18.5c-37.8,231.3-75.5,462.6-113.3,693.9
							c-9.7,13-18.6,26.5-26.7,40.5c-45,77.9-34.7,154.3-13.6,206.1c-5.8,35.6-11.6,71.1-17.5,106.7
							c-107.4-46.7-280.3-39.4-367.1,156.1c-83.9,188.9,23.9,468.7,231.3,675.6c-3.2,19.5-6.4,39.1-9.5,58.6
							c3.7,39.5,77.1,86.5,127.5,42.7c4.8,3.6,9.7,7.1,14.5,10.5c0,0-185.9,100.8-289.8,240.9c-103.9,140.1-73.2,366,201.5,403.1
							c274.7,37.1,554.9,9,554.9,9c63.8,394.4,127.6,788.9,191.4,1183.3c63.8,394.4,204.4,147.9,554.2,162.9
							c349.8,15,1176.7-120.7,1502-700.9l-368.3-1208.5C3281.7,2528.1,3576.8,2366.1,3716.3,2181.8z M3233.3,1858.6
							c7.9,106-49,245.4-51.6,251.7c2.9-3.4,50.2-58.1,72.9-108.9c0,0-16.7,199.2-206.5,356.5s-425,107.2-489.3-48
							c0,0,137.5,115.2,319.2,15.5c0,0-202.1,28.9-283-80.8c-79.1-107.2,38.4-231.2,210.1-264.8c153.7-30.2,190.8-116.6,190.8-116.6
							s-71.9,29-120.9,36.3c0,0,110.5-147.3,117.1-299.3C3140.8,1667.1,3225.2,1750.2,3233.3,1858.6z M1157.5,459
							c0,0,53.5-23,100.9,18.5c-30.8,157.8-61.6,315.7-92.4,473.5c-10.2,5.2-19.9,11.5-28.7,18.8c8.2,1.5,16.2,4.2,23.5,8.1
							c-2.1,10.5-4.1,21-6.2,31.6c-12.7,6.1-53.6,27.3-98,67L1157.5,459z M1037.8,1191.9c23.6-37.6,58.3-73.2,101.1-101.1
							c15.7-10.4,32.3-19.5,49.5-27.1c38.8-17.5,80.4-27.7,122.8-30.1c42.4-2.5-22.1-36.9-41.8-51.1c0,0,104.1-12.6,202.2,64.2
							c0,0-58.9,50.6-81.3,163.1c0,0,165.9-195.2,351.2-289.2c185.2-94,424.2-113.4,637.1-76.8c0,0-70.5-76.6-268.4-75.3
							c0,0,26.5-146.4,119.9-225c0,0-3.4,29.2,1.4,56.3c0,0,167.9-120.2,351.3-28c0,0-36.5,16.7-50.8,33c0,0,126.7,49.2,182.7,158.6
							c50.9,99.4-7.1,263.6-18.1,292.8c0,0-51.5-69.5-129.6-108c83.5,107.2,125.2,215.6,189.2,298.8
							c64.1,83.2,176.2,138.3,166.4,298.2c-9.5,153.3-88.5,321.3-147.6,365.9c-69.7,9.9-214.8,47.1-282.6,202.9
							c-67.8,155.9,27.8,289.4,27.8,289.4s-181.3,66.4-413.4,133.4c-248.2-1.5-507.3-35.8-574.1-39.1
							c90.4,49.8,252.7,90.4,320.9,106.2c-66.5,15.8-133.4,30-198.2,41.5c-67.5,3.3-327.8-50.1-518.5-167.6
							c-64.8-39.9-132.5-85.2-197.5-137.7l37.2-190.6c101.8,98.7,235.3,140.3,235.3,140.3s-158.9-124.4-221.9-208.9
							c5.5-28.4,11.1-56.8,16.6-85.1c65.3-19.4,122.9-75.4,129.3-187.8c0,0,62.7,38.6,120.6,45.7c15.7,39.1,16.8,77.9,18.9,121.6
							c-59.9-0.2-123.5-14.8-127.4-15.6c4.9,4.3,85,73.7,134,90.2c7.7,50.3,24.8,108.1,67.2,178.5c107.6,178,327.2,247.3,526,190
							c0,0-346.7,3.1-469-252.4c-97.2-203.2-25-196-94.9-358c-59.9-139.1-60.5-314.5-50.5-382.9c0,0-60.2,39.6-66.2,156.8
							c0,0-51-23.9-90.6-84.8c-13.4-20.7-23.9-43.2-31.1-66.8c-10.4-32.8-16.2-71.7-13.7-117.5c0,0-21.5,6.8-45.3,26.7
							c-1.6,1.4-3.4,2.9-5,4.4C992.9,1299.3,1004.9,1243.7,1037.8,1191.9L1037.8,1191.9z M1079,1624.1c2.6-13.2,5.1-26.4,7.7-39.6
							c27.1,34.4,63.8,66.8,112.8,87.8c0,0,8.1,54.3,24.2,84.6c0,0-59.9-18.9-103.2-50.4C1120.4,1706.5,1107.5,1669.2,1079,1624.1
							L1079,1624.1z M995.8,1448.6c0,0,7.7-13.7,17.4-22.8c0,0,8.6,49.9,39.5,106.8c-2.9,14.6-5.7,29.2-8.6,43.8
							c-17.7-21.1-37.8-40-60-56.3L995.8,1448.6z M635.1,1939.1c-93.5-256.1,86.8-442.8,237.7-402.1c19.5,5.3,38.1,13.2,55.5,23.4
							c15.7,9.2,30.5,20,43.9,32.3c21.8,19.7,40.5,42.6,55.4,67.9c13.4,22.5,23.5,46.7,30,72c15.3,59.7,7.6,121.8-33.1,169.8
							c-14.1,16.7-31.8,30-51.8,38.9c-19.7,9-40.4,13.3-60,15c-16.3,1.2-32.7,0.9-49-1c-28.6-3.2-48.5-10-48.5-10
							c9,15.1,24.4,28.2,43.9,38.2c-13.4,82-26.8,163.9-40.2,245.9C742.1,2147.9,676.4,2052.4,635.1,1939.1L635.1,1939.1z
							 M901.3,2308.3c-5.9,30.2-11.8,60.4-17.7,90.6c0,0.1,0,0.1,0,0.2c-15.2,0-29.7-6.2-40.2-17.1c0.8-5.1,1.7-10.2,2.5-15.3
							c5.2-31.6,10.3-63.2,15.5-94.8c14.8-90.8,29.7-181.6,44.5-272.3c18,3.8,36.5,5.2,54.9,4.1L901.3,2308.3z M891.8,3010.1
							c-182.6-23.5-250.4-164.5-164.5-306.4c85.9-141.8,281.5-222.8,281.5-222.8s16.2,10.6,40.8,26.1
							c-222.3,138.7-176.6,309.4-83.7,360c-46.3-101.7-2.3-242.8,175.8-305.1c31.7,18,63.9,35,90.7,46.4
							c-60.2,166.4,198.6,150.9,553.7,81.8c355.3-69.1,783.6-229.1,783.6-229.1c141,122.1,409.3,78.7,577.4-100.2
							c259-283.4,159.5-539.1,159.5-539.1c151.8-19,462.8,30.7,386.8,247.6c-75.9,216.9-637.1,561.2-1371.8,756.5
							S1074.3,3033.5,891.8,3010.1L891.8,3010.1z M3568.2,3727.2c-40.3,89.3-314.9,330.1-517.4,425c4.3-5,144.7-164.7,161.7-364.9
							c0,0-230.9,399.4-573.9,496.4c-197.9,48.8-652.1,115.9-959.8-45.4c-56.1-275.7-189.8-1091.7-188.4-1161.3
							c82.3,2,548.3-85.7,994.1-215.4c402.7,14.6,584.6,397.1,590.4,409.3c-55.4-284.9-230.9-429-340.3-487.6
							c190.5-64.6,361.4-136,476-209.6L3568.2,3727.2z"/>
					</g>
				</g>
			</g>
			<defs>
				
				<title>Shape 331</title>
			</defs>
			<g>
				<g>
					<g>
						<path class="st11" d="M2012.1,2025.4c18.1,35.5,102.2,162.5,223.5,99.3c110.5-57.5,79.4-205.2,60-232.4
							c69.9-71.9,6.6-154.8,6.6-154.8c-7.2,135.6-117.1,159.1-166.6,129.3c0,0-67.5,150.2-220.6,76.3
							C1915,1943.2,1930,2017,2012.1,2025.4z M2147.7,1948.6c0,0,54.3,14.5,98.7-14.3c50.7,151.9-122,207.8-177.9,78.8
							C2118.7,1989.5,2147.8,1948.6,2147.7,1948.6L2147.7,1948.6z"/>
					</g>
				</g>
			</g>
			<defs>
				
				<title>Shape 332</title>
			</defs>
			<g>
				<g>
					<g>
						<path class="st11" d="M2067.7,1806.4c32.6-7.7,70.6-36.8,97.1-97.8c26.5-61.1,2.7-105.7-67.5-95.9
							c-70.2,9.9-175.8,65.9-173.7,109.4C1925.7,1765.7,2003,1821.6,2067.7,1806.4z M1976.4,1717.6c23.4-14.3,49.2-29.6,100.3-44.7
							c51.1-15.1,61.9,17.4,27.3,56c-34.6,38.6-74.2,55.9-126.5,14.5C1958.7,1728.5,1970.9,1721,1976.4,1717.6z"/>
					</g>
				</g>
			</g>
			<defs>
				
				<title>Shape 333</title>
			</defs>
			<g>
				<g>
					<g>
						<path class="st11" d="M2237.1,1518.8c119.3,40.7,171.9,125.8,316.3,48.2c94.9-51.1,128.7-184.4,12.9-309.8
							c-115.8-125.5-320.2-160.4-422.3-116.5c-102.1,43.9-130.8,141-130.8,141C1971.9,1445.6,2117.8,1478.2,2237.1,1518.8z
							 M2237.6,1169.1c124.1-10.8,239.6,77.8,260.8,95.8c116.5,99,115.4,212.7,28.6,262.8c-86.8,50.1-218.4-30-307.4-65.3
							c-82.7-32.8-140.6-34.8-160-109.8C2040.2,1277.6,2113.6,1179.9,2237.6,1169.1z"/>
					</g>
				</g>
			</g>
			<defs>
				
				<title>Shape 334</title>
			</defs>
			<g>
				<g>
					<g>
						<path class="st11" d="M1610.3,1971.9c91.4,5.6,160.5-51,187.2-123.2c26.7-72.2,15.2-124.5,49.7-220
							c34.5-95.5,63-243.9-98.2-282.7c-166.5-40-307,138.5-323.3,327.4C1411.2,1855.9,1492.8,1964.7,1610.3,1971.9z M1476.4,1638.7
							c18.5-180,202-305.7,305.6-225c97,75.5,20.4,181,0,281.3c-20.4,100.3-37.2,227.1-168.1,231.1
							C1483.1,1930.1,1466.5,1735.9,1476.4,1638.7L1476.4,1638.7z"/>
					</g>
				</g>
			</g>
			<defs>
				
				<title>Shape 335</title>
			</defs>
			<g>
				<g>
					<g>
						<path class="st12" d="M1624.3,1749.3c4.3,2.2,8.8,4,13.3,5.4c-20.4-30.1-23.9-71.8-5.5-108.5c24.1-48.2,77.3-71.5,124-56.4
							c-9.1-13.5-21.6-24.5-36.1-31.8c-49.5-24.6-110.9-1.8-137.3,51C1556.3,1661.8,1574.8,1724.6,1624.3,1749.3z"/>
					</g>
				</g>
			</g>
			<defs>
				
				<title>Shape 336</title>
			</defs>
			<g>
				<g>
					<g>
						<path class="st12" d="M2311.9,1313.1c41,3.4,74.8,27.9,90.1,60.8c1.1-4.7,1.8-9.4,2.2-14.2c4.4-55.1-39.7-103.6-98.5-108.2
							s-110.2,36.1-114.7,91.2c-1.3,16.2,1.7,32.5,8.6,47.3C2210.8,1342.3,2258.3,1308.8,2311.9,1313.1z"/>
					</g>
				</g>
			</g>
			<defs>
				
				<title>Shape 337</title>
			</defs>
			<g>
				<g>
					<g>
						<path class="st11" d="M789.8,3239.1c0,0-34.7,125.2-136,207.4c101.3,82.2,136,207.4,136,207.4s34.8-125.2,136.1-207.4
							C824.6,3364.3,789.8,3239.1,789.8,3239.1z"/>
					</g>
				</g>
			</g>
			<defs>
				
				<title>Shape 338</title>
			</defs>
			<g>
				<g>
					<g>
						<path class="st12" d="M485.7,2315.5c0,0-27.1,97.9-106.4,162.2c79.2,64.3,106.4,162.2,106.4,162.2s27.2-97.9,106.5-162.2
							C512.9,2413.4,485.7,2315.5,485.7,2315.5z"/>
					</g>
					<g>
						<path class="st11" d="M485.7,2315.5c0,0-27.1,97.9-106.4,162.2c79.2,64.3,106.4,162.2,106.4,162.2s27.2-97.9,106.5-162.2
							C512.9,2413.4,485.7,2315.5,485.7,2315.5z"/>
					</g>
				</g>
			</g>
			<defs>
				
				<title>Shape 339</title>
			</defs>
			<g>
				<g>
					<g>
						<path class="st12" d="M1849.1,382.4c0,0,32.1-115.4,125.6-191.2C1881.2,115.4,1849.1,0,1849.1,0s-32.1,115.5-125.5,191.2
							C1817.1,267.1,1849.1,382.4,1849.1,382.4z"/>
					</g>
					<g>
						<path class="st11" d="M1849.1,382.4c0,0,32.1-115.4,125.6-191.2C1881.2,115.4,1849.1,0,1849.1,0s-32.1,115.5-125.5,191.2
							C1817.1,267.1,1849.1,382.4,1849.1,382.4z"/>
					</g>
				</g>
			</g>
			<defs>
				
				<title>Shape 340</title>
			</defs>
			<g>
				<g>
					<g>
						<path class="st12" d="M3187.6,1162.9c0,0,29.1-104.5,113.6-173.1c-84.6-68.6-113.6-173.1-113.6-173.1s-29,104.5-113.5,173.1
							C3158.6,1058.4,3187.6,1162.9,3187.6,1162.9z"/>
					</g>
					<g>
						<path class="st11" d="M3187.6,1162.9c0,0,29.1-104.5,113.6-173.1c-84.6-68.6-113.6-173.1-113.6-173.1s-29,104.5-113.5,173.1
							C3158.6,1058.4,3187.6,1162.9,3187.6,1162.9z"/>
					</g>
				</g>
			</g>
			<defs>
				
				<title>Shape 341</title>
			</defs>
			<g>
				<g>
					<g>
						<path class="st12" d="M4040.5,1965.7c0,0-20.5,73.8-80.2,122.2c59.7,48.5,80.2,122.2,80.2,122.2s20.5-73.8,80.2-122.2
							C4061,2039.5,4040.5,1965.7,4040.5,1965.7z"/>
					</g>
					<g>
						<path class="st11" d="M4040.5,1965.7c0,0-20.5,73.8-80.2,122.2c59.7,48.5,80.2,122.2,80.2,122.2s20.5-73.8,80.2-122.2
							C4061,2039.5,4040.5,1965.7,4040.5,1965.7z"/>
					</g>
				</g>
			</g>
			<defs>
				
				<title>Shape 342</title>
			</defs>
			<g>
				<g>
					<g>
						<path class="st11" d="M3838.4,2352.6c0,0-32,115.4-125.4,191.2c93.4,75.8,125.4,191.2,125.4,191.2s32.1-115.4,125.5-191.2
							C3870.4,2468,3838.4,2352.6,3838.4,2352.6z"/>
					</g>
				</g>
			</g>
			<defs>
				
				<title>Shape 343</title>
			</defs>
			<g>
				<g>
					<g>
						<path class="st11" d="M1517.5,619.5c0,0,27.2-94.1,106.5-156c-79.2-61.9-106.5-156-106.5-156s-27.1,94.1-106.4,156
							C1490.3,525.4,1517.5,619.5,1517.5,619.5z"/>
					</g>
				</g>
			</g>
		</g>
	</g>
</g>
</svg>
